<mxfile host="app.diagrams.net" modified="2025-03-24T03:41:45.147Z" agent="Mozilla/5.0 (Windows NT 10.0; Win64; x64) AppleWebKit/537.36 (KHTML, like Gecko) Chrome/134.0.0.0 Safari/537.36" etag="3Bkbd904yZfDKJGIOIdB" version="23.1.6" type="device">
  <diagram name="Page-1" id="M6TOUfG27xlCHgB8vpFI">
    <mxGraphModel dx="2206" dy="2235" grid="1" gridSize="10" guides="1" tooltips="1" connect="1" arrows="1" fold="1" page="1" pageScale="1" pageWidth="850" pageHeight="1100" math="0" shadow="0">
      <root>
        <mxCell id="0" />
        <mxCell id="1" parent="0" />
        <mxCell id="L99X1TOZeaCVwySjyfrT-1" value="A" style="ellipse;whiteSpace=wrap;html=1;fillColor=#f5f5f5;fontColor=#333333;strokeColor=#666666;" vertex="1" parent="1">
          <mxGeometry x="40" y="280" width="80" height="80" as="geometry" />
        </mxCell>
        <mxCell id="L99X1TOZeaCVwySjyfrT-3" value="B" style="ellipse;whiteSpace=wrap;html=1;fillColor=#dae8fc;strokeColor=#6c8ebf;" vertex="1" parent="1">
          <mxGeometry x="200" y="280" width="80" height="80" as="geometry" />
        </mxCell>
        <mxCell id="L99X1TOZeaCVwySjyfrT-5" value="" style="endArrow=classic;html=1;rounded=0;exitX=1;exitY=0.5;exitDx=0;exitDy=0;entryX=0;entryY=0.5;entryDx=0;entryDy=0;" edge="1" parent="1" source="L99X1TOZeaCVwySjyfrT-1" target="L99X1TOZeaCVwySjyfrT-3">
          <mxGeometry width="50" height="50" relative="1" as="geometry">
            <mxPoint x="190" y="450" as="sourcePoint" />
            <mxPoint x="240" y="400" as="targetPoint" />
          </mxGeometry>
        </mxCell>
        <mxCell id="L99X1TOZeaCVwySjyfrT-6" value="C" style="ellipse;whiteSpace=wrap;html=1;fillColor=#d5e8d4;strokeColor=#82b366;" vertex="1" parent="1">
          <mxGeometry x="360" y="280" width="80" height="80" as="geometry" />
        </mxCell>
        <mxCell id="L99X1TOZeaCVwySjyfrT-7" value="" style="endArrow=classic;html=1;rounded=0;exitX=1;exitY=0.5;exitDx=0;exitDy=0;entryX=0;entryY=0.5;entryDx=0;entryDy=0;" edge="1" parent="1" target="L99X1TOZeaCVwySjyfrT-6">
          <mxGeometry width="50" height="50" relative="1" as="geometry">
            <mxPoint x="280" y="320" as="sourcePoint" />
            <mxPoint x="400" y="400" as="targetPoint" />
          </mxGeometry>
        </mxCell>
        <mxCell id="L99X1TOZeaCVwySjyfrT-8" value="D" style="ellipse;whiteSpace=wrap;html=1;fillColor=#ffe6cc;strokeColor=#d79b00;" vertex="1" parent="1">
          <mxGeometry x="520" y="280" width="80" height="80" as="geometry" />
        </mxCell>
        <mxCell id="L99X1TOZeaCVwySjyfrT-9" value="" style="endArrow=classic;html=1;rounded=0;exitX=1;exitY=0.5;exitDx=0;exitDy=0;entryX=0;entryY=0.5;entryDx=0;entryDy=0;" edge="1" parent="1" target="L99X1TOZeaCVwySjyfrT-8">
          <mxGeometry width="50" height="50" relative="1" as="geometry">
            <mxPoint x="440" y="320" as="sourcePoint" />
            <mxPoint x="560" y="400" as="targetPoint" />
          </mxGeometry>
        </mxCell>
        <mxCell id="L99X1TOZeaCVwySjyfrT-10" value="E" style="ellipse;whiteSpace=wrap;html=1;fillColor=#fff2cc;strokeColor=#d6b656;" vertex="1" parent="1">
          <mxGeometry x="680" y="280" width="80" height="80" as="geometry" />
        </mxCell>
        <mxCell id="L99X1TOZeaCVwySjyfrT-11" value="" style="endArrow=classic;html=1;rounded=0;exitX=1;exitY=0.5;exitDx=0;exitDy=0;entryX=0;entryY=0.5;entryDx=0;entryDy=0;" edge="1" parent="1" target="L99X1TOZeaCVwySjyfrT-10">
          <mxGeometry width="50" height="50" relative="1" as="geometry">
            <mxPoint x="600" y="320" as="sourcePoint" />
            <mxPoint x="720" y="400" as="targetPoint" />
          </mxGeometry>
        </mxCell>
        <mxCell id="L99X1TOZeaCVwySjyfrT-12" value="F" style="ellipse;whiteSpace=wrap;html=1;fillColor=#f8cecc;strokeColor=#b85450;" vertex="1" parent="1">
          <mxGeometry x="840" y="280" width="80" height="80" as="geometry" />
        </mxCell>
        <mxCell id="L99X1TOZeaCVwySjyfrT-13" value="" style="endArrow=classic;html=1;rounded=0;exitX=1;exitY=0.5;exitDx=0;exitDy=0;entryX=0;entryY=0.5;entryDx=0;entryDy=0;" edge="1" parent="1" target="L99X1TOZeaCVwySjyfrT-12">
          <mxGeometry width="50" height="50" relative="1" as="geometry">
            <mxPoint x="760" y="320" as="sourcePoint" />
            <mxPoint x="880" y="400" as="targetPoint" />
          </mxGeometry>
        </mxCell>
        <mxCell id="L99X1TOZeaCVwySjyfrT-14" value="G" style="ellipse;whiteSpace=wrap;html=1;fillColor=#e1d5e7;strokeColor=#9673a6;" vertex="1" parent="1">
          <mxGeometry x="1000" y="280" width="80" height="80" as="geometry" />
        </mxCell>
        <mxCell id="L99X1TOZeaCVwySjyfrT-15" value="" style="endArrow=classic;html=1;rounded=0;exitX=1;exitY=0.5;exitDx=0;exitDy=0;entryX=0;entryY=0.5;entryDx=0;entryDy=0;" edge="1" parent="1" target="L99X1TOZeaCVwySjyfrT-14">
          <mxGeometry width="50" height="50" relative="1" as="geometry">
            <mxPoint x="920" y="320" as="sourcePoint" />
            <mxPoint x="1040" y="400" as="targetPoint" />
          </mxGeometry>
        </mxCell>
        <mxCell id="L99X1TOZeaCVwySjyfrT-16" value="A = 15" style="text;html=1;align=center;verticalAlign=middle;resizable=0;points=[];autosize=1;strokeColor=none;fillColor=none;" vertex="1" parent="1">
          <mxGeometry x="130" y="290" width="60" height="30" as="geometry" />
        </mxCell>
        <mxCell id="L99X1TOZeaCVwySjyfrT-67" value="Table" style="shape=table;startSize=30;container=1;collapsible=0;childLayout=tableLayout;" vertex="1" parent="1">
          <mxGeometry x="355" y="-170" width="410" height="350" as="geometry" />
        </mxCell>
        <mxCell id="L99X1TOZeaCVwySjyfrT-68" value="" style="shape=tableRow;horizontal=0;startSize=0;swimlaneHead=0;swimlaneBody=0;strokeColor=inherit;top=0;left=0;bottom=0;right=0;collapsible=0;dropTarget=0;fillColor=none;points=[[0,0.5],[1,0.5]];portConstraint=eastwest;" vertex="1" parent="L99X1TOZeaCVwySjyfrT-67">
          <mxGeometry y="30" width="410" height="40" as="geometry" />
        </mxCell>
        <mxCell id="L99X1TOZeaCVwySjyfrT-69" value="Node" style="shape=partialRectangle;html=1;whiteSpace=wrap;connectable=0;strokeColor=inherit;overflow=hidden;fillColor=none;top=0;left=0;bottom=0;right=0;pointerEvents=1;" vertex="1" parent="L99X1TOZeaCVwySjyfrT-68">
          <mxGeometry width="60" height="40" as="geometry">
            <mxRectangle width="60" height="40" as="alternateBounds" />
          </mxGeometry>
        </mxCell>
        <mxCell id="L99X1TOZeaCVwySjyfrT-70" value="Phase" style="shape=partialRectangle;html=1;whiteSpace=wrap;connectable=0;strokeColor=inherit;overflow=hidden;fillColor=none;top=0;left=0;bottom=0;right=0;pointerEvents=1;" vertex="1" parent="L99X1TOZeaCVwySjyfrT-68">
          <mxGeometry x="60" width="90" height="40" as="geometry">
            <mxRectangle width="90" height="40" as="alternateBounds" />
          </mxGeometry>
        </mxCell>
        <mxCell id="L99X1TOZeaCVwySjyfrT-71" value="Task Range" style="shape=partialRectangle;html=1;whiteSpace=wrap;connectable=0;strokeColor=inherit;overflow=hidden;fillColor=none;top=0;left=0;bottom=0;right=0;pointerEvents=1;" vertex="1" parent="L99X1TOZeaCVwySjyfrT-68">
          <mxGeometry x="150" width="70" height="40" as="geometry">
            <mxRectangle width="70" height="40" as="alternateBounds" />
          </mxGeometry>
        </mxCell>
        <mxCell id="L99X1TOZeaCVwySjyfrT-72" value="Duration" style="shape=partialRectangle;html=1;whiteSpace=wrap;connectable=0;strokeColor=inherit;overflow=hidden;fillColor=none;top=0;left=0;bottom=0;right=0;pointerEvents=1;" vertex="1" parent="L99X1TOZeaCVwySjyfrT-68">
          <mxGeometry x="220" width="70" height="40" as="geometry">
            <mxRectangle width="70" height="40" as="alternateBounds" />
          </mxGeometry>
        </mxCell>
        <mxCell id="L99X1TOZeaCVwySjyfrT-73" value="Predecessor(s" style="shape=partialRectangle;html=1;whiteSpace=wrap;connectable=0;strokeColor=inherit;overflow=hidden;fillColor=none;top=0;left=0;bottom=0;right=0;pointerEvents=1;" vertex="1" parent="L99X1TOZeaCVwySjyfrT-68">
          <mxGeometry x="290" width="120" height="40" as="geometry">
            <mxRectangle width="120" height="40" as="alternateBounds" />
          </mxGeometry>
        </mxCell>
        <mxCell id="L99X1TOZeaCVwySjyfrT-74" value="" style="shape=tableRow;horizontal=0;startSize=0;swimlaneHead=0;swimlaneBody=0;strokeColor=#666666;top=0;left=0;bottom=0;right=0;collapsible=0;dropTarget=0;fillColor=#f5f5f5;points=[[0,0.5],[1,0.5]];portConstraint=eastwest;fontColor=#333333;" vertex="1" parent="L99X1TOZeaCVwySjyfrT-67">
          <mxGeometry y="70" width="410" height="40" as="geometry" />
        </mxCell>
        <mxCell id="L99X1TOZeaCVwySjyfrT-75" value="A" style="shape=partialRectangle;html=1;whiteSpace=wrap;connectable=0;strokeColor=default;overflow=hidden;fillColor=#f5f5f5;top=0;left=0;bottom=0;right=0;pointerEvents=1;fontColor=#333333;" vertex="1" parent="L99X1TOZeaCVwySjyfrT-74">
          <mxGeometry width="60" height="40" as="geometry">
            <mxRectangle width="60" height="40" as="alternateBounds" />
          </mxGeometry>
        </mxCell>
        <mxCell id="L99X1TOZeaCVwySjyfrT-76" value="Planning" style="shape=partialRectangle;html=1;whiteSpace=wrap;connectable=0;strokeColor=default;overflow=hidden;fillColor=none;top=0;left=0;bottom=0;right=0;pointerEvents=1;" vertex="1" parent="L99X1TOZeaCVwySjyfrT-74">
          <mxGeometry x="60" width="90" height="40" as="geometry">
            <mxRectangle width="90" height="40" as="alternateBounds" />
          </mxGeometry>
        </mxCell>
        <mxCell id="L99X1TOZeaCVwySjyfrT-77" value="2-4" style="shape=partialRectangle;html=1;whiteSpace=wrap;connectable=0;strokeColor=default;overflow=hidden;fillColor=none;top=0;left=0;bottom=0;right=0;pointerEvents=1;" vertex="1" parent="L99X1TOZeaCVwySjyfrT-74">
          <mxGeometry x="150" width="70" height="40" as="geometry">
            <mxRectangle width="70" height="40" as="alternateBounds" />
          </mxGeometry>
        </mxCell>
        <mxCell id="L99X1TOZeaCVwySjyfrT-78" value="15 days" style="shape=partialRectangle;html=1;whiteSpace=wrap;connectable=0;strokeColor=default;overflow=hidden;fillColor=none;top=0;left=0;bottom=0;right=0;pointerEvents=1;" vertex="1" parent="L99X1TOZeaCVwySjyfrT-74">
          <mxGeometry x="220" width="70" height="40" as="geometry">
            <mxRectangle width="70" height="40" as="alternateBounds" />
          </mxGeometry>
        </mxCell>
        <mxCell id="L99X1TOZeaCVwySjyfrT-79" value="Start" style="shape=partialRectangle;html=1;whiteSpace=wrap;connectable=0;strokeColor=default;overflow=hidden;fillColor=none;top=0;left=0;bottom=0;right=0;pointerEvents=1;" vertex="1" parent="L99X1TOZeaCVwySjyfrT-74">
          <mxGeometry x="290" width="120" height="40" as="geometry">
            <mxRectangle width="120" height="40" as="alternateBounds" />
          </mxGeometry>
        </mxCell>
        <mxCell id="L99X1TOZeaCVwySjyfrT-80" value="" style="shape=tableRow;horizontal=0;startSize=0;swimlaneHead=0;swimlaneBody=0;strokeColor=inherit;top=0;left=0;bottom=0;right=0;collapsible=0;dropTarget=0;fillColor=none;points=[[0,0.5],[1,0.5]];portConstraint=eastwest;" vertex="1" parent="L99X1TOZeaCVwySjyfrT-67">
          <mxGeometry y="110" width="410" height="40" as="geometry" />
        </mxCell>
        <mxCell id="L99X1TOZeaCVwySjyfrT-81" value="B" style="shape=partialRectangle;html=1;whiteSpace=wrap;connectable=0;strokeColor=#6c8ebf;overflow=hidden;fillColor=#dae8fc;top=0;left=0;bottom=0;right=0;pointerEvents=1;" vertex="1" parent="L99X1TOZeaCVwySjyfrT-80">
          <mxGeometry width="60" height="40" as="geometry">
            <mxRectangle width="60" height="40" as="alternateBounds" />
          </mxGeometry>
        </mxCell>
        <mxCell id="L99X1TOZeaCVwySjyfrT-82" value="Design" style="shape=partialRectangle;html=1;whiteSpace=wrap;connectable=0;strokeColor=#6c8ebf;overflow=hidden;fillColor=#dae8fc;top=0;left=0;bottom=0;right=0;pointerEvents=1;" vertex="1" parent="L99X1TOZeaCVwySjyfrT-80">
          <mxGeometry x="60" width="90" height="40" as="geometry">
            <mxRectangle width="90" height="40" as="alternateBounds" />
          </mxGeometry>
        </mxCell>
        <mxCell id="L99X1TOZeaCVwySjyfrT-83" value="8-10" style="shape=partialRectangle;html=1;whiteSpace=wrap;connectable=0;strokeColor=#6c8ebf;overflow=hidden;fillColor=#dae8fc;top=0;left=0;bottom=0;right=0;pointerEvents=1;" vertex="1" parent="L99X1TOZeaCVwySjyfrT-80">
          <mxGeometry x="150" width="70" height="40" as="geometry">
            <mxRectangle width="70" height="40" as="alternateBounds" />
          </mxGeometry>
        </mxCell>
        <mxCell id="L99X1TOZeaCVwySjyfrT-84" value="15&amp;nbsp;days" style="shape=partialRectangle;html=1;whiteSpace=wrap;connectable=0;strokeColor=#6c8ebf;overflow=hidden;fillColor=#dae8fc;top=0;left=0;bottom=0;right=0;pointerEvents=1;" vertex="1" parent="L99X1TOZeaCVwySjyfrT-80">
          <mxGeometry x="220" width="70" height="40" as="geometry">
            <mxRectangle width="70" height="40" as="alternateBounds" />
          </mxGeometry>
        </mxCell>
        <mxCell id="L99X1TOZeaCVwySjyfrT-85" value="A" style="shape=partialRectangle;html=1;whiteSpace=wrap;connectable=0;strokeColor=#6c8ebf;overflow=hidden;fillColor=#dae8fc;top=0;left=0;bottom=0;right=0;pointerEvents=1;" vertex="1" parent="L99X1TOZeaCVwySjyfrT-80">
          <mxGeometry x="290" width="120" height="40" as="geometry">
            <mxRectangle width="120" height="40" as="alternateBounds" />
          </mxGeometry>
        </mxCell>
        <mxCell id="L99X1TOZeaCVwySjyfrT-86" value="" style="shape=tableRow;horizontal=0;startSize=0;swimlaneHead=0;swimlaneBody=0;strokeColor=inherit;top=0;left=0;bottom=0;right=0;collapsible=0;dropTarget=0;fillColor=none;points=[[0,0.5],[1,0.5]];portConstraint=eastwest;" vertex="1" parent="L99X1TOZeaCVwySjyfrT-67">
          <mxGeometry y="150" width="410" height="40" as="geometry" />
        </mxCell>
        <mxCell id="L99X1TOZeaCVwySjyfrT-87" value="C" style="shape=partialRectangle;html=1;whiteSpace=wrap;connectable=0;strokeColor=#82b366;overflow=hidden;fillColor=#d5e8d4;top=0;left=0;bottom=0;right=0;pointerEvents=1;" vertex="1" parent="L99X1TOZeaCVwySjyfrT-86">
          <mxGeometry width="60" height="40" as="geometry">
            <mxRectangle width="60" height="40" as="alternateBounds" />
          </mxGeometry>
        </mxCell>
        <mxCell id="L99X1TOZeaCVwySjyfrT-88" value="Development" style="shape=partialRectangle;html=1;whiteSpace=wrap;connectable=0;strokeColor=#82b366;overflow=hidden;fillColor=#d5e8d4;top=0;left=0;bottom=0;right=0;pointerEvents=1;" vertex="1" parent="L99X1TOZeaCVwySjyfrT-86">
          <mxGeometry x="60" width="90" height="40" as="geometry">
            <mxRectangle width="90" height="40" as="alternateBounds" />
          </mxGeometry>
        </mxCell>
        <mxCell id="L99X1TOZeaCVwySjyfrT-89" value="18-25" style="shape=partialRectangle;html=1;whiteSpace=wrap;connectable=0;strokeColor=#82b366;overflow=hidden;fillColor=#d5e8d4;top=0;left=0;bottom=0;right=0;pointerEvents=1;" vertex="1" parent="L99X1TOZeaCVwySjyfrT-86">
          <mxGeometry x="150" width="70" height="40" as="geometry">
            <mxRectangle width="70" height="40" as="alternateBounds" />
          </mxGeometry>
        </mxCell>
        <mxCell id="L99X1TOZeaCVwySjyfrT-90" value="28&amp;nbsp;days" style="shape=partialRectangle;html=1;whiteSpace=wrap;connectable=0;strokeColor=#82b366;overflow=hidden;fillColor=#d5e8d4;top=0;left=0;bottom=0;right=0;pointerEvents=1;" vertex="1" parent="L99X1TOZeaCVwySjyfrT-86">
          <mxGeometry x="220" width="70" height="40" as="geometry">
            <mxRectangle width="70" height="40" as="alternateBounds" />
          </mxGeometry>
        </mxCell>
        <mxCell id="L99X1TOZeaCVwySjyfrT-91" value="B" style="shape=partialRectangle;html=1;whiteSpace=wrap;connectable=0;strokeColor=#82b366;overflow=hidden;fillColor=#d5e8d4;top=0;left=0;bottom=0;right=0;pointerEvents=1;" vertex="1" parent="L99X1TOZeaCVwySjyfrT-86">
          <mxGeometry x="290" width="120" height="40" as="geometry">
            <mxRectangle width="120" height="40" as="alternateBounds" />
          </mxGeometry>
        </mxCell>
        <mxCell id="L99X1TOZeaCVwySjyfrT-92" value="" style="shape=tableRow;horizontal=0;startSize=0;swimlaneHead=0;swimlaneBody=0;strokeColor=inherit;top=0;left=0;bottom=0;right=0;collapsible=0;dropTarget=0;fillColor=none;points=[[0,0.5],[1,0.5]];portConstraint=eastwest;" vertex="1" parent="L99X1TOZeaCVwySjyfrT-67">
          <mxGeometry y="190" width="410" height="40" as="geometry" />
        </mxCell>
        <mxCell id="L99X1TOZeaCVwySjyfrT-93" value="D" style="shape=partialRectangle;html=1;whiteSpace=wrap;connectable=0;strokeColor=#d79b00;overflow=hidden;fillColor=#ffe6cc;top=0;left=0;bottom=0;right=0;pointerEvents=1;" vertex="1" parent="L99X1TOZeaCVwySjyfrT-92">
          <mxGeometry width="60" height="40" as="geometry">
            <mxRectangle width="60" height="40" as="alternateBounds" />
          </mxGeometry>
        </mxCell>
        <mxCell id="L99X1TOZeaCVwySjyfrT-94" value="Testing" style="shape=partialRectangle;html=1;whiteSpace=wrap;connectable=0;strokeColor=#d79b00;overflow=hidden;fillColor=#ffe6cc;top=0;left=0;bottom=0;right=0;pointerEvents=1;" vertex="1" parent="L99X1TOZeaCVwySjyfrT-92">
          <mxGeometry x="60" width="90" height="40" as="geometry">
            <mxRectangle width="90" height="40" as="alternateBounds" />
          </mxGeometry>
        </mxCell>
        <mxCell id="L99X1TOZeaCVwySjyfrT-95" value="29-31" style="shape=partialRectangle;html=1;whiteSpace=wrap;connectable=0;strokeColor=#d79b00;overflow=hidden;fillColor=#ffe6cc;top=0;left=0;bottom=0;right=0;pointerEvents=1;" vertex="1" parent="L99X1TOZeaCVwySjyfrT-92">
          <mxGeometry x="150" width="70" height="40" as="geometry">
            <mxRectangle width="70" height="40" as="alternateBounds" />
          </mxGeometry>
        </mxCell>
        <mxCell id="L99X1TOZeaCVwySjyfrT-96" value="9&amp;nbsp;days" style="shape=partialRectangle;html=1;whiteSpace=wrap;connectable=0;strokeColor=#d79b00;overflow=hidden;fillColor=#ffe6cc;top=0;left=0;bottom=0;right=0;pointerEvents=1;" vertex="1" parent="L99X1TOZeaCVwySjyfrT-92">
          <mxGeometry x="220" width="70" height="40" as="geometry">
            <mxRectangle width="70" height="40" as="alternateBounds" />
          </mxGeometry>
        </mxCell>
        <mxCell id="L99X1TOZeaCVwySjyfrT-97" value="C" style="shape=partialRectangle;html=1;whiteSpace=wrap;connectable=0;strokeColor=#d79b00;overflow=hidden;fillColor=#ffe6cc;top=0;left=0;bottom=0;right=0;pointerEvents=1;" vertex="1" parent="L99X1TOZeaCVwySjyfrT-92">
          <mxGeometry x="290" width="120" height="40" as="geometry">
            <mxRectangle width="120" height="40" as="alternateBounds" />
          </mxGeometry>
        </mxCell>
        <mxCell id="L99X1TOZeaCVwySjyfrT-98" value="" style="shape=tableRow;horizontal=0;startSize=0;swimlaneHead=0;swimlaneBody=0;strokeColor=inherit;top=0;left=0;bottom=0;right=0;collapsible=0;dropTarget=0;fillColor=none;points=[[0,0.5],[1,0.5]];portConstraint=eastwest;" vertex="1" parent="L99X1TOZeaCVwySjyfrT-67">
          <mxGeometry y="230" width="410" height="40" as="geometry" />
        </mxCell>
        <mxCell id="L99X1TOZeaCVwySjyfrT-99" value="E" style="shape=partialRectangle;html=1;whiteSpace=wrap;connectable=0;strokeColor=#d6b656;overflow=hidden;fillColor=#fff2cc;top=0;left=0;bottom=0;right=0;pointerEvents=1;" vertex="1" parent="L99X1TOZeaCVwySjyfrT-98">
          <mxGeometry width="60" height="40" as="geometry">
            <mxRectangle width="60" height="40" as="alternateBounds" />
          </mxGeometry>
        </mxCell>
        <mxCell id="L99X1TOZeaCVwySjyfrT-100" value="UAT &amp;amp; Adjustments" style="shape=partialRectangle;html=1;whiteSpace=wrap;connectable=0;strokeColor=#d6b656;overflow=hidden;fillColor=#fff2cc;top=0;left=0;bottom=0;right=0;pointerEvents=1;" vertex="1" parent="L99X1TOZeaCVwySjyfrT-98">
          <mxGeometry x="60" width="90" height="40" as="geometry">
            <mxRectangle width="90" height="40" as="alternateBounds" />
          </mxGeometry>
        </mxCell>
        <mxCell id="L99X1TOZeaCVwySjyfrT-101" value="33-34" style="shape=partialRectangle;html=1;whiteSpace=wrap;connectable=0;strokeColor=#d6b656;overflow=hidden;fillColor=#fff2cc;top=0;left=0;bottom=0;right=0;pointerEvents=1;" vertex="1" parent="L99X1TOZeaCVwySjyfrT-98">
          <mxGeometry x="150" width="70" height="40" as="geometry">
            <mxRectangle width="70" height="40" as="alternateBounds" />
          </mxGeometry>
        </mxCell>
        <mxCell id="L99X1TOZeaCVwySjyfrT-102" value="4&amp;nbsp;days" style="shape=partialRectangle;html=1;whiteSpace=wrap;connectable=0;strokeColor=#d6b656;overflow=hidden;fillColor=#fff2cc;top=0;left=0;bottom=0;right=0;pointerEvents=1;" vertex="1" parent="L99X1TOZeaCVwySjyfrT-98">
          <mxGeometry x="220" width="70" height="40" as="geometry">
            <mxRectangle width="70" height="40" as="alternateBounds" />
          </mxGeometry>
        </mxCell>
        <mxCell id="L99X1TOZeaCVwySjyfrT-103" value="D" style="shape=partialRectangle;html=1;whiteSpace=wrap;connectable=0;strokeColor=#d6b656;overflow=hidden;fillColor=#fff2cc;top=0;left=0;bottom=0;right=0;pointerEvents=1;" vertex="1" parent="L99X1TOZeaCVwySjyfrT-98">
          <mxGeometry x="290" width="120" height="40" as="geometry">
            <mxRectangle width="120" height="40" as="alternateBounds" />
          </mxGeometry>
        </mxCell>
        <mxCell id="L99X1TOZeaCVwySjyfrT-104" value="" style="shape=tableRow;horizontal=0;startSize=0;swimlaneHead=0;swimlaneBody=0;strokeColor=inherit;top=0;left=0;bottom=0;right=0;collapsible=0;dropTarget=0;fillColor=none;points=[[0,0.5],[1,0.5]];portConstraint=eastwest;" vertex="1" parent="L99X1TOZeaCVwySjyfrT-67">
          <mxGeometry y="270" width="410" height="40" as="geometry" />
        </mxCell>
        <mxCell id="L99X1TOZeaCVwySjyfrT-105" value="F" style="shape=partialRectangle;html=1;whiteSpace=wrap;connectable=0;strokeColor=#b85450;overflow=hidden;fillColor=#f8cecc;top=0;left=0;bottom=0;right=0;pointerEvents=1;" vertex="1" parent="L99X1TOZeaCVwySjyfrT-104">
          <mxGeometry width="60" height="40" as="geometry">
            <mxRectangle width="60" height="40" as="alternateBounds" />
          </mxGeometry>
        </mxCell>
        <mxCell id="L99X1TOZeaCVwySjyfrT-106" value="Launch &amp; Deployment" style="shape=partialRectangle;html=1;whiteSpace=wrap;connectable=0;strokeColor=#b85450;overflow=hidden;fillColor=#f8cecc;top=0;left=0;bottom=0;right=0;pointerEvents=1;" vertex="1" parent="L99X1TOZeaCVwySjyfrT-104">
          <mxGeometry x="60" width="90" height="40" as="geometry">
            <mxRectangle width="90" height="40" as="alternateBounds" />
          </mxGeometry>
        </mxCell>
        <mxCell id="L99X1TOZeaCVwySjyfrT-107" value="42" style="shape=partialRectangle;html=1;whiteSpace=wrap;connectable=0;strokeColor=#b85450;overflow=hidden;fillColor=#f8cecc;top=0;left=0;bottom=0;right=0;pointerEvents=1;" vertex="1" parent="L99X1TOZeaCVwySjyfrT-104">
          <mxGeometry x="150" width="70" height="40" as="geometry">
            <mxRectangle width="70" height="40" as="alternateBounds" />
          </mxGeometry>
        </mxCell>
        <mxCell id="L99X1TOZeaCVwySjyfrT-108" value="7&amp;nbsp;days" style="shape=partialRectangle;html=1;whiteSpace=wrap;connectable=0;strokeColor=#b85450;overflow=hidden;fillColor=#f8cecc;top=0;left=0;bottom=0;right=0;pointerEvents=1;" vertex="1" parent="L99X1TOZeaCVwySjyfrT-104">
          <mxGeometry x="220" width="70" height="40" as="geometry">
            <mxRectangle width="70" height="40" as="alternateBounds" />
          </mxGeometry>
        </mxCell>
        <mxCell id="L99X1TOZeaCVwySjyfrT-109" value="E" style="shape=partialRectangle;html=1;whiteSpace=wrap;connectable=0;strokeColor=#b85450;overflow=hidden;fillColor=#f8cecc;top=0;left=0;bottom=0;right=0;pointerEvents=1;" vertex="1" parent="L99X1TOZeaCVwySjyfrT-104">
          <mxGeometry x="290" width="120" height="40" as="geometry">
            <mxRectangle width="120" height="40" as="alternateBounds" />
          </mxGeometry>
        </mxCell>
        <mxCell id="L99X1TOZeaCVwySjyfrT-110" value="" style="shape=tableRow;horizontal=0;startSize=0;swimlaneHead=0;swimlaneBody=0;strokeColor=inherit;top=0;left=0;bottom=0;right=0;collapsible=0;dropTarget=0;fillColor=none;points=[[0,0.5],[1,0.5]];portConstraint=eastwest;" vertex="1" parent="L99X1TOZeaCVwySjyfrT-67">
          <mxGeometry y="310" width="410" height="40" as="geometry" />
        </mxCell>
        <mxCell id="L99X1TOZeaCVwySjyfrT-111" value="G" style="shape=partialRectangle;html=1;whiteSpace=wrap;connectable=0;strokeColor=#9673a6;overflow=hidden;fillColor=#e1d5e7;top=0;left=0;bottom=0;right=0;pointerEvents=1;" vertex="1" parent="L99X1TOZeaCVwySjyfrT-110">
          <mxGeometry width="60" height="40" as="geometry">
            <mxRectangle width="60" height="40" as="alternateBounds" />
          </mxGeometry>
        </mxCell>
        <mxCell id="L99X1TOZeaCVwySjyfrT-112" value="End" style="shape=partialRectangle;html=1;whiteSpace=wrap;connectable=0;strokeColor=#9673a6;overflow=hidden;fillColor=#e1d5e7;top=0;left=0;bottom=0;right=0;pointerEvents=1;" vertex="1" parent="L99X1TOZeaCVwySjyfrT-110">
          <mxGeometry x="60" width="90" height="40" as="geometry">
            <mxRectangle width="90" height="40" as="alternateBounds" />
          </mxGeometry>
        </mxCell>
        <mxCell id="L99X1TOZeaCVwySjyfrT-113" value="-" style="shape=partialRectangle;html=1;whiteSpace=wrap;connectable=0;strokeColor=#9673a6;overflow=hidden;fillColor=#e1d5e7;top=0;left=0;bottom=0;right=0;pointerEvents=1;" vertex="1" parent="L99X1TOZeaCVwySjyfrT-110">
          <mxGeometry x="150" width="70" height="40" as="geometry">
            <mxRectangle width="70" height="40" as="alternateBounds" />
          </mxGeometry>
        </mxCell>
        <mxCell id="L99X1TOZeaCVwySjyfrT-114" value="0&amp;nbsp;days" style="shape=partialRectangle;html=1;whiteSpace=wrap;connectable=0;strokeColor=#9673a6;overflow=hidden;fillColor=#e1d5e7;top=0;left=0;bottom=0;right=0;pointerEvents=1;" vertex="1" parent="L99X1TOZeaCVwySjyfrT-110">
          <mxGeometry x="220" width="70" height="40" as="geometry">
            <mxRectangle width="70" height="40" as="alternateBounds" />
          </mxGeometry>
        </mxCell>
        <mxCell id="L99X1TOZeaCVwySjyfrT-115" value="F" style="shape=partialRectangle;html=1;whiteSpace=wrap;connectable=0;strokeColor=#9673a6;overflow=hidden;fillColor=#e1d5e7;top=0;left=0;bottom=0;right=0;pointerEvents=1;" vertex="1" parent="L99X1TOZeaCVwySjyfrT-110">
          <mxGeometry x="290" width="120" height="40" as="geometry">
            <mxRectangle width="120" height="40" as="alternateBounds" />
          </mxGeometry>
        </mxCell>
        <mxCell id="L99X1TOZeaCVwySjyfrT-116" value="B = 15" style="text;html=1;align=center;verticalAlign=middle;resizable=0;points=[];autosize=1;strokeColor=none;fillColor=none;" vertex="1" parent="1">
          <mxGeometry x="285" y="290" width="60" height="30" as="geometry" />
        </mxCell>
        <mxCell id="L99X1TOZeaCVwySjyfrT-117" value="C = 28" style="text;html=1;align=center;verticalAlign=middle;resizable=0;points=[];autosize=1;strokeColor=none;fillColor=none;" vertex="1" parent="1">
          <mxGeometry x="445" y="290" width="60" height="30" as="geometry" />
        </mxCell>
        <mxCell id="L99X1TOZeaCVwySjyfrT-118" value="D = 9" style="text;html=1;align=center;verticalAlign=middle;resizable=0;points=[];autosize=1;strokeColor=none;fillColor=none;" vertex="1" parent="1">
          <mxGeometry x="610" y="290" width="50" height="30" as="geometry" />
        </mxCell>
        <mxCell id="L99X1TOZeaCVwySjyfrT-119" value="E = 4" style="text;html=1;align=center;verticalAlign=middle;resizable=0;points=[];autosize=1;strokeColor=none;fillColor=none;" vertex="1" parent="1">
          <mxGeometry x="770" y="290" width="50" height="30" as="geometry" />
        </mxCell>
        <mxCell id="L99X1TOZeaCVwySjyfrT-120" value="F = 7" style="text;html=1;align=center;verticalAlign=middle;resizable=0;points=[];autosize=1;strokeColor=none;fillColor=none;" vertex="1" parent="1">
          <mxGeometry x="930" y="290" width="50" height="30" as="geometry" />
        </mxCell>
      </root>
    </mxGraphModel>
  </diagram>
</mxfile>
